<?xml version="1.0" encoding="UTF-8" standalone="no"?>
<!DOCTYPE svg PUBLIC "-//W3C//DTD SVG 1.1//EN" "http://www.w3.org/Graphics/SVG/1.1/DTD/svg11.dtd">
<svg version="1.1" xmlns="http://www.w3.org/2000/svg" xmlns:xlink="http://www.w3.org/1999/xlink" preserveAspectRatio="xMidYMid meet" viewBox="0 0 640 640" width="640" height="640"><defs><path d="M326.39 62.88L332.85 63.53L339.23 64.44L345.52 65.6L351.72 66.99L357.83 68.63L363.85 70.5L369.75 72.6L375.55 74.92L381.24 77.45L386.8 80.2L392.25 83.16L397.56 86.31L402.73 89.67L407.77 93.21L412.66 96.94L417.4 100.86L421.99 104.95L426.41 109.2L430.67 113.63L434.76 118.22L438.67 122.96L442.4 127.85L445.95 132.88L449.3 138.06L452.46 143.37L455.41 148.81L458.16 154.38L460.7 160.06L463.02 165.86L465.11 171.77L466.98 177.78L468.62 183.89L470.02 190.1L471.18 196.39L472.09 202.77L472.74 209.22L473.14 215.75L473.27 222.35L473.26 224.13L473.23 225.92L473.18 227.7L473.12 229.47L473.03 231.24L472.92 233.01L472.8 234.76L472.65 236.52L472.49 238.27L472.31 240.01L472.11 241.75L471.89 243.48L471.65 245.21L471.4 246.93L471.13 248.64L470.83 250.35L470.52 252.05L470.2 253.75L469.85 255.44L469.49 257.12L469.11 258.79L468.71 260.46L468.3 262.13L467.86 263.78L467.41 265.43L466.95 267.07L466.46 268.7L465.96 270.33L465.45 271.95L464.91 273.56L464.36 275.16L463.79 276.76L463.21 278.34L462.61 279.92L462 281.49L461.36 283.06L460.72 284.61L460.05 286.16L459.37 287.69L458.68 289.22L336.8 553.72L336.36 554.66L335.91 555.59L335.45 556.49L334.97 557.38L334.5 558.25L334.01 559.1L333.51 559.93L333 560.74L332.49 561.53L331.97 562.3L331.44 563.04L330.9 563.77L330.36 564.48L329.8 565.16L329.24 565.82L328.68 566.46L328.1 567.08L327.52 567.67L326.93 568.24L326.34 568.79L325.74 569.31L325.13 569.81L324.51 570.29L323.89 570.74L323.27 571.16L322.64 571.56L322 571.94L321.36 572.29L320.71 572.61L320.05 572.91L319.4 573.18L318.73 573.42L318.07 573.63L317.39 573.82L316.72 573.98L316.03 574.11L315.35 574.21L314.66 574.29L313.97 574.33L313.27 574.35L312.57 574.33L311.88 574.29L311.19 574.21L310.51 574.11L309.83 573.98L309.15 573.82L308.48 573.63L307.81 573.42L307.15 573.18L306.49 572.91L305.83 572.61L305.19 572.29L304.54 571.94L303.91 571.56L303.27 571.16L302.65 570.74L302.03 570.29L301.41 569.81L300.81 569.31L300.2 568.79L299.61 568.24L299.02 567.67L298.44 567.07L297.87 566.45L297.3 565.81L296.74 565.15L296.18 564.47L295.64 563.76L295.1 563.03L294.57 562.28L294.05 561.51L293.54 560.72L293.03 559.91L292.54 559.08L292.05 558.23L291.57 557.36L291.1 556.47L290.64 555.56L290.18 554.63L289.74 553.69L167.86 289.22L167.17 287.69L166.49 286.16L165.83 284.61L165.19 283.06L164.55 281.49L163.94 279.92L163.34 278.34L162.76 276.76L162.19 275.16L161.64 273.56L161.11 271.95L160.59 270.33L160.09 268.7L159.61 267.07L159.14 265.43L158.69 263.78L158.26 262.13L157.84 260.46L157.44 258.79L157.06 257.12L156.7 255.44L156.35 253.75L156.03 252.05L155.72 250.35L155.42 248.64L155.15 246.93L154.89 245.21L154.66 243.48L154.44 241.75L154.24 240.01L154.05 238.27L153.89 236.52L153.75 234.76L153.62 233.01L153.51 231.24L153.43 229.47L153.36 227.7L153.31 225.92L153.28 224.13L153.27 222.35L153.4 215.75L153.8 209.22L154.46 202.77L155.36 196.39L156.52 190.1L157.92 183.89L159.56 177.78L161.43 171.77L163.52 165.86L165.84 160.06L168.38 154.38L171.13 148.81L174.08 143.37L177.24 138.06L180.59 132.88L184.14 127.85L187.87 122.96L191.78 118.22L195.87 113.63L200.13 109.2L204.56 104.95L209.14 100.86L213.88 96.94L218.77 93.21L223.81 89.67L228.99 86.31L234.3 83.16L239.74 80.2L245.3 77.45L250.99 74.92L256.79 72.6L262.69 70.5L268.71 68.63L274.82 66.99L281.02 65.6L287.32 64.44L293.69 63.53L300.15 62.88L306.67 62.48L313.27 62.35L319.87 62.48L326.39 62.88ZM305.4 126.66L301.53 127.06L297.7 127.6L293.93 128.3L290.21 129.14L286.54 130.12L282.93 131.24L279.39 132.5L275.91 133.89L272.5 135.41L269.16 137.06L265.9 138.84L262.71 140.73L259.6 142.75L256.58 144.87L253.65 147.11L250.8 149.46L248.05 151.91L245.4 154.47L242.84 157.13L240.39 159.88L238.04 162.72L235.8 165.66L233.67 168.68L231.66 171.79L229.76 174.97L227.99 178.24L226.34 181.58L224.82 184.99L223.43 188.47L222.17 192.01L221.04 195.62L220.06 199.28L219.22 203L218.53 206.78L217.98 210.6L217.59 214.47L217.35 218.39L217.27 222.35L217.35 226.3L217.59 230.22L217.98 234.09L218.53 237.91L219.22 241.69L220.06 245.41L221.04 249.07L222.17 252.68L223.43 256.23L224.82 259.7L226.34 263.12L227.99 266.45L229.76 269.72L231.66 272.91L233.67 276.01L235.8 279.03L238.04 281.97L240.39 284.81L242.84 287.56L245.4 290.22L248.05 292.78L250.8 295.23L253.65 297.58L256.58 299.82L259.6 301.95L262.71 303.96L265.9 305.85L269.16 307.63L272.5 309.28L275.91 310.8L279.39 312.19L282.93 313.45L286.54 314.57L290.21 315.55L293.93 316.39L297.7 317.09L301.53 317.63L305.4 318.03L309.32 318.27L313.27 318.35L317.23 318.27L321.14 318.03L325.01 317.63L328.84 317.09L332.61 316.39L336.33 315.55L340 314.57L343.61 313.45L347.15 312.19L350.63 310.8L354.04 309.28L357.38 307.63L360.64 305.85L363.83 303.96L366.94 301.95L369.96 299.82L372.89 297.58L375.74 295.23L378.49 292.78L381.15 290.22L383.7 287.56L386.16 284.81L388.5 281.97L390.74 279.03L392.87 276.01L394.88 272.91L396.78 269.72L398.55 266.45L400.2 263.12L401.72 259.7L403.12 256.23L404.37 252.68L405.5 249.07L406.48 245.41L407.32 241.69L408.01 237.91L408.56 234.09L408.95 230.22L409.19 226.3L409.27 222.35L409.19 218.39L408.95 214.47L408.56 210.6L408.01 206.78L407.32 203L406.48 199.28L405.5 195.62L404.37 192.01L403.12 188.47L401.72 184.99L400.2 181.58L398.55 178.24L396.78 174.97L394.88 171.79L392.87 168.68L390.74 165.66L388.5 162.72L386.16 159.88L383.7 157.13L381.15 154.47L378.49 151.91L375.74 149.46L372.89 147.11L369.96 144.87L366.94 142.75L363.83 140.73L360.64 138.84L357.38 137.06L354.04 135.41L350.63 133.89L347.15 132.5L343.61 131.24L340 130.12L336.33 129.14L332.61 128.3L328.84 127.6L325.01 127.06L321.14 126.66L317.23 126.43L313.27 126.35L309.32 126.43L305.4 126.66Z" id="arRH5FqVM"></path></defs><g><g><g><use xlink:href="#arRH5FqVM" opacity="1" fill="#f0ab25" fill-opacity="1"></use><g><use xlink:href="#arRH5FqVM" opacity="1" fill-opacity="0" stroke="#000000" stroke-width="1" stroke-opacity="0"></use></g></g></g></g></svg>